# xmcd CD database file
#
# Track frame offsets:
#	150
#	18395
#	37782
#	54122
#	68800
#	89785
#	106877
#	126800
#	140552
#	159040
#
# Disc length: 2324 seconds
#
# Revision: 4
# Processed by: cddbd v1.4PL0 Copyright (c) Steve Scherf et al.
# Submitted via: CDex 1.51
#
DISCID=7709120a
DTITLE=Phillip Walker - Blues
DYEAR=1900
DGENRE=Blues
TTITLE0=How Many More Tears
TTITLE1=90 Proof
TTITLE2=What'd You Hope To Gain
TTITLE3=What Did I Do Wrong
TTITLE4=Don't Be Afraid Of The Dark
TTITLE5=Big Rear Window
TTITLE6=Her Own Keys
TTITLE7=Talk To That Man (2)
TTITLE8=Sometime Girl (2)
TTITLE9=I Had A Dream
EXTD=
EXTT0=
EXTT1=
EXTT2=
EXTT3=
EXTT4=
EXTT5=
EXTT6=
EXTT7=
EXTT8=
EXTT9=
PLAYORDER=
